<?xml version="1.0" encoding="UTF-8"?>
<svg version="1.1" xmlns="http://www.w3.org/2000/svg" width="500" height="500">
<path d="M0 0 C0.65789654 -0.00467997 1.31579308 -0.00935994 1.99362588 -0.01418173 C4.19120909 -0.02611674 6.3881669 -0.01668031 8.58575439 -0.00723267 C10.1648037 -0.01129952 11.74385016 -0.01664204 13.32289124 -0.02316284 C17.61086085 -0.03684217 21.89861392 -0.03153172 26.18658733 -0.02202559 C30.68832153 -0.01441622 35.19003751 -0.02147963 39.69177246 -0.02618408 C47.26437693 -0.03164465 54.83689371 -0.02444917 62.40948486 -0.01016235 C71.12585446 0.00609404 79.84201274 0.00092818 88.55837703 -0.01564157 C96.06443213 -0.02933274 103.5704242 -0.03113699 111.07648778 -0.02332556 C115.54885763 -0.01868157 120.02112887 -0.01793141 124.49349213 -0.02793503 C128.7124975 -0.03671146 132.93123617 -0.0303918 137.15021324 -0.01325226 C138.68467711 -0.00934053 140.21916407 -0.01032806 141.75361824 -0.01704025 C155.40592551 -0.0711715 169.59413397 0.95091534 182.20001221 6.63095093 C182.90069824 6.93396118 183.60138428 7.23697144 184.32330322 7.54916382 C200.86515941 14.91357156 217.63843754 27.86997284 227.32501221 43.38095093 C227.32501221 44.37095093 227.32501221 45.36095093 227.32501221 46.38095093 C227.98501221 46.38095093 228.64501221 46.38095093 229.32501221 46.38095093 C234.97207937 57.53228171 239.70988057 68.09994599 242.32501221 80.38095093 C242.54802002 81.24977905 242.77102783 82.11860718 243.00079346 83.01376343 C248.20855518 105.61615785 243.44086514 133.69268991 231.32501221 153.38095093 C230.57056457 154.6908994 229.82048484 156.0033742 229.07501221 157.31845093 C228.49751221 158.32907593 227.92001221 159.33970093 227.32501221 160.38095093 C226.66501221 160.38095093 226.00501221 160.38095093 225.32501221 160.38095093 C225.13938721 161.04095093 224.95376221 161.70095093 224.76251221 162.38095093 C222.71692446 166.65000361 219.75316577 170.12258799 216.32501221 173.38095093 C215.66501221 173.38095093 215.00501221 173.38095093 214.32501221 173.38095093 C214.32501221 174.04095093 214.32501221 174.70095093 214.32501221 175.38095093 C213.66501221 175.38095093 213.00501221 175.38095093 212.32501221 175.38095093 C212.32501221 176.04095093 212.32501221 176.70095093 212.32501221 177.38095093 C211.66501221 177.38095093 211.00501221 177.38095093 210.32501221 177.38095093 C210.32501221 178.04095093 210.32501221 178.70095093 210.32501221 179.38095093 C208.27590092 181.03903358 206.23406837 182.56497749 204.07501221 184.06845093 C203.43749023 184.51470825 202.79996826 184.96096558 202.14312744 185.42074585 C187.69911332 195.41961867 171.47523011 203.7979631 153.44024658 203.60800171 C152.308811 203.60836331 152.308811 203.60836331 151.15451813 203.60873222 C148.74247428 203.60725401 146.33074986 203.59209084 143.91876221 203.57626343 C142.41778715 203.57331835 140.91681004 203.57128077 139.41583252 203.57015991 C133.88552751 203.55972644 128.35526663 203.53180393 122.82501221 203.50595093 C110.45001221 203.46470093 98.07501221 203.42345093 85.32501221 203.38095093 C85.32501221 237.04095093 85.32501221 270.70095093 85.32501221 305.38095093 C70.41313721 305.44282593 55.50126221 305.50470093 40.13751221 305.56845093 C35.43219238 305.59576294 30.72687256 305.62307495 25.87896729 305.6512146 C20.12518311 305.6647644 20.12518311 305.6647644 17.43003845 305.6672821 C15.55106983 305.6718834 13.67210997 305.68242341 11.79319763 305.69767761 C8.94402722 305.71964906 6.09539727 305.72266856 3.24615479 305.7215271 C2.41162435 305.73232142 1.57709391 305.74311575 0.71727467 305.75423717 C-3.88105786 305.72958963 -6.98054076 305.43124764 -10.67498779 302.38095093 C-15.74275689 291.1437238 -10.62600364 275.92672457 -6.56951904 264.91220093 C-1.8882876 253.17750946 5.35513669 241.33149481 14.32501221 232.38095093 C14.98501221 232.38095093 15.64501221 232.38095093 16.32501221 232.38095093 C16.65501221 231.39095093 16.98501221 230.40095093 17.32501221 229.38095093 C20.76945665 226.38095093 20.76945665 226.38095093 23.32501221 226.38095093 C23.65501221 225.39095093 23.98501221 224.40095093 24.32501221 223.38095093 C26.3194289 221.83340354 28.26029064 220.47219383 30.38751221 219.13095093 C31.00730957 218.73762573 31.62710693 218.34430054 32.26568604 217.9390564 C47.9076183 208.29914752 65.83990565 202.24442872 84.32501221 202.38095093 C84.32057098 201.66400055 84.31612976 200.94705017 84.31155396 200.20837402 C84.27128291 193.41265247 84.24092978 186.61694902 84.22138786 179.82113838 C84.21100304 176.3283283 84.19694228 172.83561779 84.1741333 169.34286499 C84.14800766 165.31648873 84.13849567 161.29021514 84.12969971 157.26376343 C84.11937714 156.0248233 84.10905457 154.78588318 84.09841919 153.50939941 C84.0964759 138.32366062 87.47945997 124.96703036 98.26251221 113.81845093 C103.83052934 108.66507337 109.30306814 105.15604741 116.32501221 102.38095093 C115.49507751 102.3788134 115.49507751 102.3788134 114.64837646 102.37663269 C108.80621918 102.35670163 102.96507424 102.30193965 97.12335205 102.22836304 C94.95317896 102.20539229 92.7828977 102.19083733 90.61260986 102.18539429 C77.24421195 102.14529526 65.82208245 101.35204449 53.32501221 96.38095093 C52.09822754 95.92542847 50.87144287 95.46990601 49.60748291 95.00057983 C35.00439749 89.46346347 22.67529181 79.95290288 12.32501221 68.38095093 C11.62118408 67.6049353 10.91735596 66.82891968 10.19219971 66.02938843 C-3.0839584 50.46244225 -13.68293936 28.06285321 -12.61248779 7.25595093 C-11.67498779 3.38095093 -11.67498779 3.38095093 -9.53358078 1.66257286 C-6.13401425 0.13841078 -3.72203824 0.0035819 0 0 Z " fill="#313131" transform="translate(136.67498779296875,89.61904907226563)"/>
<path d="M0 0 C1.067948 0.00241699 1.067948 0.00241699 2.1574707 0.00488281 C7.76993478 0.13601815 11.68890329 1.06990854 16.1875 4.375 C17.074375 4.9525 17.96125 5.53 18.875 6.125 C25.21397907 12.29265531 28.46702919 19.69954006 28.6875 28.5 C28.67834729 35.98325939 26.98479791 41.56472683 22.1875 47.375 C16.00077369 53.15778198 8.39921455 57.23243606 -0.1953125 57.4296875 C-8.48651736 56.78325458 -15.93095875 53.23272934 -21.8125 47.375 C-27.59331184 39.41699928 -29.81253475 31.59113421 -28.3125 21.875 C-26.06003855 13.34890431 -20.2569724 6.7865392 -12.8125 2.375 C-8.58972295 0.28216498 -4.6418912 -0.01084934 0 0 Z " fill="#393939" transform="translate(279.8125,338.625)"/>
<path d="M0 0 C0.33 0 0.66 0 1 0 C1 52.47 1 104.94 1 159 C0.67 159 0.34 159 0 159 C-0.33 126.99 -0.66 94.98 -1 62 C-4.63 61.67 -8.26 61.34 -12 61 C-12 60.67 -12 60.34 -12 60 C-6.06 59.505 -6.06 59.505 0 59 C0 39.53 0 20.06 0 0 Z " fill="#898989" transform="translate(221,233)"/>
<path d="M0 0 C3.68069887 1.53643852 5.98775204 3.78150945 8.75 6.625 C9.54921875 7.44226563 10.3484375 8.25953125 11.171875 9.1015625 C12.07679688 10.04128906 12.07679688 10.04128906 13 11 C12.01 11.495 12.01 11.495 11 12 C7.26360784 10.75453595 6.81243487 9.36595047 5 6 C4.34 6.66 3.68 7.32 3 8 C2.34 7.34 1.68 6.68 1 6 C1 4.68 1 3.36 1 2 C0.67 1.34 0.34 0.68 0 0 Z " fill="#919191" transform="translate(343,112)"/>
<path d="M0 0 C4.21912747 0.4794463 6.79663178 1.16625119 10 4 C7.66785852 5.20628008 5.50357861 6.1654738 3 7 C2.34 6.01 1.68 5.02 1 4 C1.33 3.01 1.66 2.02 2 1 C1.34 0.67 0.68 0.34 0 0 Z " fill="#6A6A6A" transform="translate(312,95)"/>
<path d="M0 0 C0.66 0 1.32 0 2 0 C2 0.66 2 1.32 2 2 C2.66 2.33 3.32 2.66 4 3 C3.29875 3.4125 2.5975 3.825 1.875 4.25 C-1.14153323 6.08615066 -4.07249245 8.02563445 -7 10 C-5.32598022 6.04322598 -2.86850715 3.15535787 0 0 Z " fill="#868686" transform="translate(151,322)"/>
<path d="M0 0 C0.66 0.33 1.32 0.66 2 1 C1.34 1.66 0.68 2.32 0 3 C0 4.32 0 5.64 0 7 C-0.66 7 -1.32 7 -2 7 C-2 6.34 -2 5.68 -2 5 C-3.65 5.66 -5.3 6.32 -7 7 C-5.66667905 3.00003714 -3.5042173 2.16217663 0 0 Z " fill="#909090" transform="translate(167,309)"/>
<path d="M0 0 C0.66 0 1.32 0 2 0 C2 0.66 2 1.32 2 2 C3.65 2.33 5.3 2.66 7 3 C6.67 4.32 6.34 5.64 6 7 C1.125 3.375 1.125 3.375 0 0 Z " fill="#7F7F7F" transform="translate(142,148)"/>
<path d="M0 0 C0.99 0.99 1.98 1.98 3 3 C2.01 3.66 1.02 4.32 0 5 C-0.99 4.67 -1.98 4.34 -3 4 C-2.67 3.01 -2.34 2.02 -2 1 C-1.34 0.67 -0.68 0.34 0 0 Z " fill="#292929" transform="translate(148,329)"/>
</svg>
