<?xml version="1.0" encoding="UTF-8"?>
<svg version="1.1" xmlns="http://www.w3.org/2000/svg" width="500" height="500">
<path d="M0 0 C1.30346878 -0.00426498 2.60693756 -0.00852997 3.9499054 -0.01292419 C5.39810184 -0.01257465 6.84629825 -0.0121131 8.29449463 -0.0115509 C9.81737857 -0.01454277 11.34026174 -0.01794536 12.86314392 -0.02172852 C17.00640732 -0.0305776 21.14965008 -0.03290723 25.29292202 -0.0335443 C27.88627525 -0.03425517 30.47962323 -0.03639037 33.07297516 -0.03904152 C42.13526237 -0.04830332 51.19753487 -0.05237604 60.25982666 -0.05158997 C68.67963362 -0.05099141 77.09937605 -0.06149718 85.51916671 -0.07733363 C92.76356611 -0.09046883 100.00794461 -0.09577125 107.25235581 -0.09513456 C111.57153732 -0.09488099 115.89066169 -0.09765243 120.20983124 -0.10831261 C124.28428442 -0.11809265 128.35862709 -0.11800594 132.43308449 -0.11079597 C133.91679104 -0.10976177 135.40050483 -0.11204243 136.88419914 -0.11815643 C161.73116028 -0.21378688 183.48109181 5.48127857 203.77984619 20.13371277 C204.76984619 20.79371277 205.75984619 21.45371277 206.77984619 22.13371277 C206.77984619 22.79371277 206.77984619 23.45371277 206.77984619 24.13371277 C207.35605713 24.38894714 207.93226807 24.64418152 208.52593994 24.90715027 C222.98604429 32.77625385 233.73481977 53.75967223 238.21343994 68.81340027 C240.46986443 76.80140945 242.60667878 84.79503566 242.77984619 93.13371277 C242.8069165 94.22941589 242.83398682 95.32511902 242.86187744 96.45402527 C243.22664836 127.16110405 232.62476491 152.8698209 211.27984619 175.13371277 C191.77769396 194.69838192 165.3567749 202.38374982 138.39156342 202.52151108 C132.37640984 202.52916631 126.36258353 202.47931052 120.34790039 202.40837097 C116.43858664 202.36678581 112.52916306 202.34904373 108.61968994 202.32902527 C101.00611732 202.28666126 93.39307459 202.21877785 85.77984619 202.13371277 C85.7820668 203.3717717 85.78428741 204.60983063 85.78657532 205.88540649 C85.80680473 217.52556499 85.82181736 229.16571994 85.83165836 240.80589199 C85.8368877 246.79090543 85.84398627 252.77590473 85.85528564 258.76091003 C85.86611272 264.53154706 85.87212264 270.30217045 85.87472343 276.07281685 C85.87657801 278.2797422 85.88019923 280.48666677 85.88557625 282.69358635 C85.89278429 285.77317318 85.89383723 288.85270291 85.89337158 291.93229675 C85.89696686 292.85442459 85.90056213 293.77655243 85.90426636 294.72662354 C85.89389835 301.01966061 85.89389835 301.01966061 84.77984619 302.13371277 C82.00662301 302.2448852 79.25807356 302.29110986 76.48394775 302.29484558 C75.61401184 302.29981049 74.74407593 302.30477539 73.84777832 302.30989075 C70.9553347 302.32455528 68.06294596 302.33132236 65.17047119 302.33683777 C63.16605629 302.3425868 61.16164141 302.34834456 59.15722656 302.35411072 C54.94712059 302.36463368 50.73703379 302.37046749 46.5269165 302.37394714 C41.13194006 302.37942696 35.73721664 302.40343861 30.34231949 302.4319191 C26.19876366 302.45054581 22.05526867 302.45575115 17.9116745 302.45728302 C15.92295706 302.46031127 13.93424072 302.46834558 11.94556427 302.4814682 C9.16128861 302.49852522 6.37762949 302.49664898 3.59332275 302.49015808 C2.77130371 302.49937286 1.94928467 302.50858765 1.10235596 302.51808167 C-4.68200661 302.47584499 -8.03032487 301.32354171 -12.22015381 297.13371277 C-14.83586807 277.33688589 -6.47346555 257.17552469 4.71734619 241.25871277 C20.18799786 221.14384987 42.0684641 204.87892825 67.77984619 201.13371277 C73.10321509 200.64670798 78.4409291 200.38264387 83.77984619 200.13371277 C83.77540497 199.42929047 83.77096375 198.72486816 83.76638794 197.99909973 C83.72611166 191.32110373 83.69576119 184.64314224 83.67622185 177.96505165 C83.66583839 174.53277478 83.65178023 171.10059929 83.62896729 167.66838074 C83.60283545 163.71152511 83.59332848 159.75470879 83.58453369 155.79777527 C83.57421112 154.58070892 83.56388855 153.36364258 83.55325317 152.10969543 C83.55133169 137.34898824 86.5603769 124.61618266 96.96734619 113.63371277 C101.51581579 109.21295398 106.72316464 105.15260662 112.77984619 103.13371277 C111.92455322 103.11389343 111.06926025 103.0940741 110.18804932 103.07365417 C74.76555443 102.21050507 43.30348582 99.09938509 16.46734619 73.25871277 C8.68634047 65.04613414 2.69394384 56.39618253 -2.59515381 46.44621277 C-3.01216553 45.66254333 -3.42917725 44.8788739 -3.85882568 44.07145691 C-10.28355059 31.59800548 -13.79144118 18.22461245 -12.22015381 4.13371277 C-9.14295142 -0.21588122 -4.94966208 0.00730487 0 0 Z " fill="#A87D1B" transform="translate(135.22015380859375,98.86628723144531)"/>
<path d="M0 0 C6.00374703 4.51098234 9.61157124 9.54302497 12.15234375 16.6171875 C13.29862299 25.98802028 13.06525602 34.87612844 7.15234375 42.6171875 C1.90074811 48.39614003 -3.43785386 52.16915963 -11.26953125 52.96484375 C-19.55867318 53.28941858 -26.12886467 52.73008162 -32.84765625 47.6171875 C-38.53356413 42.31481472 -42.70850386 37.47123297 -43.21875 29.5078125 C-43.48787201 19.3994594 -43.18404207 12.27732895 -35.98046875 4.63671875 C-26.08388378 -4.70149858 -12.1548131 -7.15940738 0 0 Z " fill="#A87D1A" transform="translate(292.84765625,348.3828125)"/>
<path d="M0 0 C1.30924942 -0.00281982 2.61849884 -0.00563965 3.96742249 -0.00854492 C5.42196669 -0.00660046 6.87651076 -0.00455228 8.33105469 -0.00241089 C9.86042828 -0.00376574 11.38980155 -0.00554615 12.91917419 -0.00772095 C17.07870149 -0.01228836 21.23820404 -0.01050773 25.39773178 -0.00734186 C29.75547096 -0.00481105 34.11320801 -0.00715816 38.47094727 -0.00872803 C45.79818095 -0.01054915 53.12540456 -0.00814651 60.45263672 -0.00338745 C68.90431467 0.00203883 77.35596844 0.00030421 85.8076458 -0.00521386 C93.07236372 -0.00976603 100.3370744 -0.01038477 107.60179329 -0.00777519 C111.93647787 -0.00622188 116.27115113 -0.00599228 120.60583496 -0.00931168 C124.69010091 -0.01222041 128.77433605 -0.01016 132.85859871 -0.00441742 C134.35043347 -0.00310512 135.84227086 -0.00345762 137.33410454 -0.00568008 C160.00797623 -0.03631866 160.00797623 -0.03631866 164.75292969 3.12698364 C156.84535517 4.42883554 148.9328369 4.23783116 140.9453125 4.19290161 C139.34473313 4.18770241 137.7441521 4.18299549 136.14356995 4.17874146 C132.7098361 4.16883715 129.27613023 4.15600206 125.84241486 4.14101791 C120.41348834 4.11788269 114.98456546 4.10463101 109.55560303 4.09332275 C94.12246995 4.05994383 78.68939201 4.01813356 63.25634766 3.95559692 C54.72300344 3.92110164 46.18969915 3.89727674 37.65629268 3.88538849 C32.2582035 3.87728441 26.860376 3.85602648 21.46237135 3.82518363 C18.10905006 3.80919851 14.75580439 3.80576377 11.40244865 3.80595398 C9.84637447 3.80352876 8.29029857 3.79593523 6.73427773 3.78282547 C4.61201306 3.76568812 2.49053231 3.76700609 0.3682251 3.77294922 C-0.81971523 3.76888502 -2.00765556 3.76482082 -3.23159409 3.76063347 C-6.53550892 4.16202605 -7.91819028 4.78624559 -10.24707031 7.12698364 C-10.94214422 9.62105616 -10.94214422 9.62105616 -10.99707031 12.31448364 C-11.05378906 13.21553833 -11.11050781 14.11659302 -11.16894531 15.04495239 C-11.20761719 16.07555786 -11.20761719 16.07555786 -11.24707031 17.12698364 C-11.57707031 17.12698364 -11.90707031 17.12698364 -12.24707031 17.12698364 C-12.32809092 15.0234487 -12.38626938 12.91902412 -12.43457031 10.81448364 C-12.469375 9.64272583 -12.50417969 8.47096802 -12.54003906 7.26370239 C-12.24707031 4.12698364 -12.24707031 4.12698364 -10.92285156 2.27151489 C-7.3905598 -0.14098274 -4.13976528 0.00136826 0 0 Z " fill="#886E2F" transform="translate(135.2470703125,98.87301635742188)"/>
<path d="M0 0 C12.96588416 12.29667724 19.41775238 34.47963993 20 52 C20.73748158 80.62769424 13.41196972 106.20894341 -6 128 C-9.2677328 131.40330398 -12.60182927 134.72717164 -16 138 C-16.99 137.67 -17.98 137.34 -19 137 C-18.01 136.67 -17.02 136.34 -16 136 C-16 135.34 -16 134.68 -16 134 C-15.34 134 -14.68 134 -14 134 C-13.505 132.02 -13.505 132.02 -13 130 C-12.34 130 -11.68 130 -11 130 C-11 129.34 -11 128.68 -11 128 C-10.34 128 -9.68 128 -9 128 C-8.690625 127.38125 -8.38125 126.7625 -8.0625 126.125 C-7.375 124.75 -6.6875 123.375 -6 122 C-5.34 122 -4.68 122 -4 122 C-3.67 120.68 -3.34 119.36 -3 118 C-2.34 118 -1.68 118 -1 118 C-0.731875 117.13375 -0.46375 116.2675 -0.1875 115.375 C0.97111987 112.08208036 2.38209839 109.08872125 4 106 C4.66 106 5.32 106 6 106 C6.11214844 105.29488281 6.22429687 104.58976562 6.33984375 103.86328125 C7.06314908 100.72610488 8.19457691 98.09872094 9.5625 95.1875 C10.01753906 94.21167969 10.47257812 93.23585938 10.94140625 92.23046875 C11.29074219 91.49441406 11.64007813 90.75835937 12 90 C12.66 90 13.32 90 14 90 C13.97679687 89.24976563 13.95359375 88.49953125 13.9296875 87.7265625 C13.91164063 86.70304687 13.89359375 85.67953125 13.875 84.625 C13.85179687 83.62726563 13.82859375 82.62953125 13.8046875 81.6015625 C13.96600533 78.62686176 14.35706704 76.13848476 14.99609375 73.25390625 C16.13322021 67.89547551 16.26296587 62.77384569 16.1875 57.3125 C16.18685547 56.41466797 16.18621094 55.51683594 16.18554688 54.59179688 C16.15282114 49.62839369 15.83667191 44.89285733 15 40 C14.34 40 13.68 40 13 40 C12.95101563 39.3709375 12.90203125 38.741875 12.8515625 38.09375 C12.48016835 33.84192728 12.03654725 29.75617053 10.9375 25.625 C10 22 10 22 10 18 C9.01 18 8.02 18 7 18 C7 16.68 7 15.36 7 14 C5.3545622 12.31237149 3.68711423 10.6459651 2 9 C1.3125 6.75 1.3125 6.75 1 5 C0.34 4.67 -0.32 4.34 -1 4 C-0.67 2.68 -0.34 1.36 0 0 Z " fill="#957B30" transform="translate(358,140)"/>
<path d="M0 0 C0.66 0.99 1.32 1.98 2 3 C-0.875 7.875 -0.875 7.875 -2 9 C-3.66617115 9.04063832 -5.33388095 9.042721 -7 9 C-6.896875 9.721875 -6.79375 10.44375 -6.6875 11.1875 C-7.12797243 15.15175187 -9.10317959 16.37265126 -12 19 C-15.82000796 23.23480681 -16.51524165 28.27440744 -17.83984375 33.6875 C-19.05286283 37.15093496 -20.13411923 38.75664911 -23 41 C-23.66 41 -24.32 41 -25 41 C-25.04898438 41.78503906 -25.09796875 42.57007813 -25.1484375 43.37890625 C-25.78321613 52.29864041 -25.78321613 52.29864041 -27.0625 56.4375 C-28.50300287 61.91141091 -28.15235337 67.37138941 -28 73 C-27.195625 72.979375 -26.39125 72.95875 -25.5625 72.9375 C-23 73 -23 73 -22 74 C-19.18778715 74.23935822 -16.40048053 74.40596724 -13.58203125 74.52734375 C-12.66565384 74.56866928 -11.74927643 74.60999481 -10.80513 74.65257263 C3.13397382 75.22817151 17.08844827 75.34946248 31.03704834 75.53222656 C34.87955316 75.58334865 38.72199944 75.63855069 42.56445312 75.69335938 C50.04291857 75.79945577 57.5214342 75.9012009 65 76 C65 76.33 65 76.66 65 77 C53.48223362 77.06950788 41.96451714 77.12281537 30.44658375 77.15543652 C25.09834701 77.17109296 19.75025376 77.19233104 14.40209961 77.22631836 C9.24091366 77.25891227 4.07986575 77.27685317 -1.08141518 77.28463173 C-3.05060308 77.29017516 -5.01978343 77.30100008 -6.98891258 77.31719017 C-9.74692491 77.33896475 -12.50436673 77.3419669 -15.26245117 77.34057617 C-16.07669052 77.351362 -16.89092987 77.36214783 -17.72984314 77.3732605 C-23.62895246 77.34106939 -26.86720537 76.13279463 -31 72 C-33.74696899 51.20978209 -24.48317728 29.77112501 -12.09375 13.546875 C-8.25272943 8.87458879 -4.27941822 4.27941822 0 0 Z " fill="#877339" transform="translate(154,324)"/>
<path d="M0 0 C0.33 0 0.66 0 1 0 C1.89815937 36.87708609 2.09083638 73.73811806 2.0625 110.625 C2.06164398 111.74721703 2.06078796 112.86943405 2.05990601 114.02565765 C2.04844681 128.01712082 2.02827188 142.00856107 2 156 C-0.65446057 153.34553943 -0.23633457 151.39597631 -0.24884033 147.78579712 C-0.24164978 146.91401825 -0.23445923 146.04223938 -0.22705078 145.14404297 C-0.22734283 144.22691528 -0.22763489 143.3097876 -0.22793579 142.36486816 C-0.22653893 139.32387941 -0.21096101 136.28313362 -0.1953125 133.2421875 C-0.19158364 131.13754409 -0.18873607 129.03289894 -0.18673706 126.92825317 C-0.17909064 121.38140086 -0.1594335 115.83465283 -0.1373291 110.2878418 C-0.11689237 104.63071097 -0.10774 98.97356333 -0.09765625 93.31640625 C-0.07618856 82.21089161 -0.04204048 71.10545447 0 60 C-0.94246582 60.0714624 -1.88493164 60.1429248 -2.85595703 60.21655273 C-4.10231934 60.30880127 -5.34868164 60.4010498 -6.6328125 60.49609375 C-7.86402832 60.58818115 -9.09524414 60.68026855 -10.36376953 60.77514648 C-14.91649018 61.05667299 -19.44120437 61.09453724 -24 61 C-20.63337034 59.0504675 -17.51943875 58.44236108 -13.6875 57.875 C-12.05361328 57.62363281 -12.05361328 57.62363281 -10.38671875 57.3671875 C-7 57 -7 57 0 57 C0 38.19 0 19.38 0 0 Z " fill="#665222" transform="translate(219,242)"/>
<path d="M0 0 C0.33 0 0.66 0 1 0 C1.33 20.79 1.66 41.58 2 63 C26.09 63 50.18 63 75 63 C75 62.34 75 61.68 75 61 C75.78503906 60.89042969 76.57007813 60.78085937 77.37890625 60.66796875 C84.34158171 59.6830208 84.34158171 59.6830208 90.9375 57.375 C93.95824122 56.01874884 95.74446597 55.70404236 99 56 C97.4609858 59.0780284 95.12323318 59.2846022 91.9375 60.4375 C90.28041016 61.05431641 90.28041016 61.05431641 88.58984375 61.68359375 C76.44964525 65.46570053 64.43698499 66.4452992 51.81640625 66.328125 C50.33951512 66.32505575 48.86262106 66.32318852 47.38572693 66.32244873 C44.33117127 66.31790383 41.2768879 66.30368903 38.22241211 66.28125 C34.30166412 66.25259227 30.3811252 66.24199465 26.46028233 66.2375679 C23.42951876 66.23342757 20.39879745 66.2236279 17.36805534 66.21169281 C15.9203112 66.20599414 14.47256305 66.20123411 13.0248127 66.19742584 C11.01985353 66.19059332 9.01492494 66.17606864 7.01000977 66.16113281 C5.30035789 66.15089081 5.30035789 66.15089081 3.5561676 66.14044189 C1 66 1 66 0 65 C-0.12858601 63.19162389 -0.18845815 61.37832025 -0.22119141 59.56567383 C-0.24436432 58.40389114 -0.26753723 57.24210846 -0.29141235 56.04512024 C-0.3112619 54.77855087 -0.33111145 53.51198151 -0.3515625 52.20703125 C-0.37471527 50.91310959 -0.39786804 49.61918793 -0.42172241 48.28605652 C-0.47026112 45.53962494 -0.51516672 42.79316307 -0.55761719 40.04663086 C-0.61218569 36.53723852 -0.67607203 33.02809019 -0.74279213 29.51891041 C-0.80517087 26.1650345 -0.85921031 22.81103875 -0.9140625 19.45703125 C-0.93796051 18.20058304 -0.96185852 16.94413483 -0.98648071 15.64961243 C-1.0033493 14.47206894 -1.0202179 13.29452545 -1.03759766 12.08129883 C-1.06305161 10.53361565 -1.06305161 10.53361565 -1.08901978 8.95466614 C-0.99664392 5.88860797 -0.57185082 3.01055417 0 0 Z " fill="#897943" transform="translate(220,235)"/>
<path d="M0 0 C2.04224637 0.11514149 4.08380159 0.24257326 6.125 0.375 C7.26195312 0.44460937 8.39890625 0.51421875 9.5703125 0.5859375 C13 1 13 1 15.69824219 2 C19.58410044 3.1769059 23.23503282 3.35132877 27.2578125 3.4140625 C28.43426834 3.44311172 28.43426834 3.44311172 29.63449097 3.4727478 C32.13121868 3.53214133 34.62800042 3.57861611 37.125 3.625 C38.77866491 3.66324627 40.43231132 3.7023017 42.0859375 3.7421875 C49.9512328 3.92337118 57.80471382 4.04653744 65.67236328 3.91552734 C68.69662365 4.02528129 71.24360414 4.77493518 74 6 C74 6.66 74 7.32 74 8 C68.70257231 8.75693278 63.71009959 9.09337019 58.34375 8.94921875 C57.63835083 8.9303511 56.93295166 8.91148346 56.20617676 8.89204407 C54.72036967 8.85045875 53.23464682 8.80575569 51.74902344 8.75805664 C49.53335445 8.6885464 47.31766737 8.63362988 45.1015625 8.58007812 C32.28692328 8.2258993 19.18719192 7.67048568 7 3.375 C6.3090625 3.14554688 5.618125 2.91609375 4.90625 2.6796875 C3.26635247 2.13305499 1.63236767 1.56872384 0 1 C0 0.67 0 0.34 0 0 Z " fill="#A38131" transform="translate(185,193)"/>
<path d="M0 0 C0 0.99 0 1.98 0 3 C-0.64066406 2.79503906 -1.28132813 2.59007812 -1.94140625 2.37890625 C-10.77937155 -0.37390261 -18.77033229 -1.15021159 -28 -1 C-28.226875 -0.42121094 -28.45375 0.15757812 -28.6875 0.75390625 C-30.83239377 4.42448339 -34.29966842 6.42548433 -37.6875 8.90234375 C-41.46271694 12.32682263 -42.04671033 15.50500662 -42.4140625 20.42578125 C-42.49318002 22.05428358 -42.56327608 23.6832457 -42.625 25.3125 C-42.66367188 26.14845703 -42.70234375 26.98441406 -42.7421875 27.84570312 C-42.83595159 29.89679259 -42.91904245 31.94836515 -43 34 C-46.02916727 30.97083273 -45.42775234 27.5010548 -45.4375 23.4375 C-45.41707012 14.79140307 -44.17083127 9.42387333 -38.1328125 3.01953125 C-27.17965125 -7.31565009 -12.70529093 -8.37054461 0 0 Z " fill="#8A7331" transform="translate(295,350)"/>
<path d="M0 0 C12.96588416 12.29667724 19.41775238 34.47963993 20 52 C20.28972663 63.24666098 20.07620686 74.13073577 17 85 C16.67 85 16.34 85 16 85 C16 82.03 16 79.06 16 76 C16.66 76 17.32 76 18 76 C17.56957989 63.89049766 16.89504327 51.97740938 15 40 C14.34 40 13.68 40 13 40 C12.95101563 39.3709375 12.90203125 38.741875 12.8515625 38.09375 C12.48016835 33.84192728 12.03654725 29.75617053 10.9375 25.625 C10 22 10 22 10 18 C9.01 18 8.02 18 7 18 C7 16.68 7 15.36 7 14 C5.3545622 12.31237149 3.68711423 10.6459651 2 9 C1.3125 6.75 1.3125 6.75 1 5 C0.34 4.67 -0.32 4.34 -1 4 C-0.67 2.68 -0.34 1.36 0 0 Z " fill="#826D39" transform="translate(358,140)"/>
<path d="M0 0 C0.33 0 0.66 0 1 0 C1 6.93 1 13.86 1 21 C2.65 21 4.3 21 6 21 C6.33 21.33 6.66 21.66 7 22 C9.81221285 22.23935822 12.59951947 22.40596724 15.41796875 22.52734375 C16.79253487 22.58933205 16.79253487 22.58933205 18.19487 22.65257263 C32.13397382 23.22817151 46.08844827 23.34946248 60.03704834 23.53222656 C63.87955316 23.58334865 67.72199944 23.63855069 71.56445312 23.69335938 C79.04291857 23.79945577 86.5214342 23.9012009 94 24 C94 24.33 94 24.66 94 25 C82.48223362 25.06950788 70.96451714 25.12281537 59.44658375 25.15543652 C54.09834701 25.17109296 48.75025376 25.19233104 43.40209961 25.22631836 C38.24091366 25.25891227 33.07986575 25.27685317 27.91858482 25.28463173 C25.94939692 25.29017516 23.98021657 25.30100008 22.01108742 25.31719017 C19.25307509 25.33896475 16.49563327 25.3419669 13.73754883 25.34057617 C12.92330948 25.351362 12.10907013 25.36214783 11.27015686 25.3732605 C5.37104754 25.34106939 2.13279463 24.13279463 -2 20 C-2.19986152 17.51642668 -2.278386 15.16890927 -2.25 12.6875 C-2.25515625 11.37136719 -2.2603125 10.05523437 -2.265625 8.69921875 C-2.02139485 5.29795479 -1.47970157 3.03573695 0 0 Z " fill="#736930" transform="translate(125,376)"/>
<path d="M0 0 C0.33 0 0.66 0 1 0 C1.0154612 1.75313507 1.0154612 1.75313507 1.03123474 3.54168701 C1.12892834 14.54816989 1.23165867 25.55459573 1.33933926 36.56098557 C1.39453841 42.21967371 1.44795369 47.87836705 1.49731445 53.53710938 C1.54500224 58.99657964 1.5973468 64.4559871 1.65294075 69.91538239 C1.67334426 71.99979339 1.69206065 74.0842216 1.70907402 76.16866302 C1.73316227 79.0848361 1.76321097 82.00089071 1.79467773 84.91699219 C1.8004332 85.78158051 1.80618866 86.64616882 1.81211853 87.53695679 C1.82190735 88.33338593 1.83169617 89.12981506 1.84178162 89.95037842 C1.84823417 90.63987957 1.85468672 91.32938072 1.8613348 92.03977585 C2.00864398 94.12219465 2.43698378 95.99324729 3 98 C0.17585838 99.41207081 -2.12844184 99.07574909 -5.28564453 99.02172852 C-5.92967224 99.01212097 -6.57369995 99.00251343 -7.23724365 98.99261475 C-9.36921007 98.95959357 -11.50097355 98.91927337 -13.6328125 98.87890625 C-15.10968304 98.85460816 -16.58656111 98.83076445 -18.06344604 98.80735779 C-21.95319193 98.74448579 -25.84280456 98.67542803 -29.73242188 98.60510254 C-33.70045903 98.53444718 -37.66859076 98.46961349 -41.63671875 98.40429688 C-49.42458377 98.27524439 -57.21231722 98.13966008 -65 98 C-65 97.67 -65 97.34 -65 97 C-43.88 96.67 -22.76 96.34 -1 96 C-0.67 64.32 -0.34 32.64 0 0 Z " fill="#A3802C" transform="translate(218,302)"/>
<path d="M0 0 C0 0.66 0 1.32 0 2 C-1.32 2 -2.64 2 -4 2 C-4 2.66 -4 3.32 -4 4 C-4.66 4 -5.32 4 -6 4 C-6.433125 4.928125 -6.433125 4.928125 -6.875 5.875 C-8 8 -8 8 -10 10 C-11.32 10 -12.64 10 -14 10 C-14.2475 10.9075 -14.495 11.815 -14.75 12.75 C-16.04328796 16.11254868 -17.26999678 17.71031988 -20 20 C-20.33 20 -20.66 20 -21 20 C-21.66 21.98 -22.32 23.96 -23 26 C-23.66 26 -24.32 26 -25 26 C-25 27.32 -25 28.64 -25 30 C-25.66 30 -26.32 30 -27 30 C-27 30.66 -27 31.32 -27 32 C-27.66 32 -28.32 32 -29 32 C-27.17980974 20.53280136 -20.93442441 12.12846413 -11.66015625 5.26953125 C-3.93735154 0 -3.93735154 0 0 0 Z " fill="#9C7F3A" transform="translate(250,202)"/>
<path d="M0 0 C0.70125 0.721875 1.4025 1.44375 2.125 2.1875 C8.24551842 8.29067984 12.85532326 12.28338675 21.8125 12.3125 C27.41885545 12.23681711 31.14570768 11.74373044 36 9 C36.680625 8.67 37.36125 8.34 38.0625 8 C39.0215625 7.505 39.0215625 7.505 40 7 C42 6 44 5 46 4 C44.55366256 7.60411654 42.80863332 9.11402568 39.5625 11.1875 C38.78003906 11.69667969 37.99757813 12.20585937 37.19140625 12.73046875 C31.07723423 16.27254702 23.82208664 15.5920277 17 15 C9.62610836 12.92093174 4.22552012 8.33828017 0 2 C0 1.34 0 0.68 0 0 Z " fill="#816F3E" transform="translate(253,386)"/>
<path d="M0 0 C1.37222335 0.80325269 2.73472399 1.62522993 4.0625 2.5 C4.0625 3.49 4.0625 4.48 4.0625 5.5 C3.42183594 5.29503906 2.78117187 5.09007812 2.12109375 4.87890625 C-8.15082276 1.67945685 -17.35602975 0.73642162 -27.9375 2.5 C-27.9375 1.84 -27.9375 1.18 -27.9375 0.5 C-19.55125001 -4.40902439 -8.60733785 -4.31593009 0 0 Z " fill="#8D753D" transform="translate(290.9375,347.5)"/>
<path d="M0 0 C5.25908822 4.69053814 7.69759561 9.01153305 8.3984375 15.9375 C8.40628016 17.29166649 8.39834462 18.64601203 8.375 20 C8.38660156 20.67289062 8.39820313 21.34578125 8.41015625 22.0390625 C8.38078598 27.11032854 7.19398464 30.54238041 5 35 C4.34 35 3.68 35 3 35 C3.2165625 34.12601562 3.2165625 34.12601562 3.4375 33.234375 C4.95508213 26.53172058 5.71083565 19.86792679 5 13 C4.34 12.01 3.68 11.02 3 10 C2.11324203 8.44414283 1.23890164 6.88116351 0.375 5.3125 C-0.29402344 4.10013672 -0.29402344 4.10013672 -0.9765625 2.86328125 C-1.31429688 2.24839844 -1.65203125 1.63351562 -2 1 C-1.34 0.67 -0.68 0.34 0 0 Z " fill="#978042" transform="translate(297,353)"/>
<path d="M0 0 C5.9845738 1.28432988 10.96707948 3.22663924 16.375 6.0625 C17.08527344 6.42666016 17.79554688 6.79082031 18.52734375 7.16601562 C20.35495498 8.10409691 22.17783214 9.05138859 24 10 C24.66 10.33 25.32 10.66 26 11 C26 11.99 26 12.98 26 14 C22.69939943 12.95346811 19.4870894 11.81540689 16.3125 10.4375 C13.0874603 8.98050103 13.0874603 8.98050103 10 8 C10 7.34 10 6.68 10 6 C9.36191406 5.81824219 8.72382813 5.63648437 8.06640625 5.44921875 C7.24011719 5.19785156 6.41382813 4.94648437 5.5625 4.6875 C4.73878906 4.44386719 3.91507812 4.20023437 3.06640625 3.94921875 C2.04353516 3.47935547 2.04353516 3.47935547 1 3 C0.67 2.01 0.34 1.02 0 0 Z " fill="#937933" transform="translate(306,103)"/>
<path d="M0 0 C-1.93629739 3.87259478 -7.36033164 4.4894589 -11.3046875 5.8203125 C-20.65405845 8.8049954 -28.21303141 9.13516564 -38 8 C-38 7.67 -38 7.34 -38 7 C-33.38 7 -28.76 7 -24 7 C-24 6.34 -24 5.68 -24 5 C-23.21496094 4.89042969 -22.42992187 4.78085937 -21.62109375 4.66796875 C-14.65841829 3.6830208 -14.65841829 3.6830208 -8.0625 1.375 C-5.04175878 0.01874884 -3.25553403 -0.29595764 0 0 Z " fill="#967F3C" transform="translate(319,291)"/>
<path d="M0 0 C3.15111212 2.52952288 3.58798017 4.76756266 4.1875 8.6875 C4.42533203 10.17830078 4.42533203 10.17830078 4.66796875 11.69921875 C4.77753906 12.45847656 4.88710937 13.21773437 5 14 C5.99 14.33 6.98 14.66 8 15 C8.103125 15.99 8.20625 16.98 8.3125 18 C8.71849285 20.975261 9.50970781 23.52681586 10.625 26.3125 C11.07875 27.529375 11.5325 28.74625 12 30 C11.67 30.66 11.34 31.32 11 32 C0 11.41092637 0 11.41092637 0 0 Z " fill="#98814A" transform="translate(124,117)"/>
<path d="M0 0 C1.55521173 0.00031721 3.11044535 0.0116478 4.66552734 0.03173828 C5.89316299 0.03598312 5.89316299 0.03598312 7.14559937 0.04031372 C9.76436877 0.05152546 12.38279848 0.07663149 15.00146484 0.10205078 C16.77489741 0.11207931 18.54833533 0.12120538 20.32177734 0.12939453 C24.6734711 0.151468 29.02491034 0.18600434 33.37646484 0.22705078 C33.37646484 0.88705078 33.37646484 1.54705078 33.37646484 2.22705078 C25.39167496 3.63062713 17.43535625 3.11048009 9.37646484 2.78955078 C7.91945495 2.73622973 6.46242364 2.68349033 5.00537109 2.63134766 C1.46213024 2.50329266 -2.08075551 2.36734944 -5.62353516 2.22705078 C-3.62353516 0.22705078 -3.62353516 0.22705078 0 0 Z " fill="#6E5921" transform="translate(225.62353515625,198.77294921875)"/>
<path d="M0 0 C-0.3358407 3.10652645 -0.59049279 4.60414303 -2.875 6.8125 C-5 8 -5 8 -8 8 C-8 8.66 -8 9.32 -8 10 C-8.66 10 -9.32 10 -10 10 C-10 10.66 -10 11.32 -10 12 C-12.31 12.66 -14.62 13.32 -17 14 C-17.66 13.34 -18.32 12.68 -19 12 C-16.72958215 10.37441681 -14.45868411 8.74951198 -12.1875 7.125 C-11.54490234 6.66480469 -10.90230469 6.20460938 -10.24023438 5.73046875 C-9.30727539 5.06337891 -9.30727539 5.06337891 -8.35546875 4.3828125 C-7.78465576 3.97434082 -7.21384277 3.56586914 -6.62573242 3.14501953 C-2.16034115 0 -2.16034115 0 0 0 Z " fill="#967D3D" transform="translate(174,311)"/>
<path d="M0 0 C0.99 1.98 0.99 1.98 2 4 C-0.82414162 5.41207081 -3.12844184 5.07574909 -6.28564453 5.02172852 C-6.92967224 5.01212097 -7.57369995 5.00251343 -8.23724365 4.99261475 C-10.36921007 4.95959357 -12.50097355 4.91927337 -14.6328125 4.87890625 C-16.10968304 4.85460816 -17.58656111 4.83076445 -19.06344604 4.80735779 C-22.95319193 4.74448579 -26.84280456 4.67542803 -30.73242188 4.60510254 C-34.70045903 4.53444718 -38.66859076 4.46961349 -42.63671875 4.40429688 C-50.42458377 4.27524439 -58.21231722 4.13966008 -66 4 C-66 3.67 -66 3.34 -66 3 C-44.22 3 -22.44 3 0 3 C0 2.01 0 1.02 0 0 Z " fill="#A0833E" transform="translate(219,396)"/>
<path d="M0 0 C8.17735268 0.26767112 15.27489093 1.48012123 23.03125 4.078125 C26.72025602 5.22365845 30.15914876 5.69875677 34 6 C34 6.33 34 6.66 34 7 C22.10999605 7.73294545 10.96266639 5.68021527 0 1 C0 0.67 0 0.34 0 0 Z " fill="#826C35" transform="translate(185,193)"/>
<path d="M0 0 C0.33 0.66 0.66 1.32 1 2 C2.65 1.34 4.3 0.68 6 0 C4.69254251 1.68704193 3.35827971 3.35360035 2 5 C1.67 5 1.34 5 1 5 C0.34 6.98 -0.32 8.96 -1 11 C-1.66 11 -2.32 11 -3 11 C-3 12.32 -3 13.64 -3 15 C-3.66 15 -4.32 15 -5 15 C-5 15.66 -5 16.32 -5 17 C-5.66 17 -6.32 17 -7 17 C-5.96687638 10.3386656 -3.91419734 5.48286421 0 0 Z " fill="#937939" transform="translate(228,217)"/>
<path d="M0 0 C1.32 0.66 2.64 1.32 4 2 C4 2.66 4 3.32 4 4 C5.11375 4.103125 6.2275 4.20625 7.375 4.3125 C9.169375 4.6528125 9.169375 4.6528125 11 5 C11.99 6.485 11.99 6.485 13 8 C15.56282742 8.72965366 15.56282742 8.72965366 18 9 C16.375 10.125 16.375 10.125 14 11 C9.50156452 9.83748297 5.98818829 7.91905082 2.125 5.375 C1.15820312 4.74335938 0.19140625 4.11171875 -0.8046875 3.4609375 C-1.52914062 2.97882813 -2.25359375 2.49671875 -3 2 C-2.01 1.34 -1.02 0.68 0 0 Z " fill="#9B8542" transform="translate(170,182)"/>
<path d="M0 0 C1.98 0.99 3.96 1.98 6 3 C6 3.66 6 4.32 6 5 C6.66 5 7.32 5 8 5 C10.36214538 7.64846603 11.87172132 9.61516396 13 13 C13.66 13.66 14.32 14.32 15 15 C12 15 12 15 10.09765625 13.42578125 C0 2.94049904 0 2.94049904 0 0 Z " fill="#8A7037" transform="translate(143,160)"/>
<path d="M0 0 C4.05281712 1.22527029 7.44360764 2.69880494 11 5 C10.67 5.66 10.34 6.32 10 7 C9.35933594 6.79503906 8.71867187 6.59007812 8.05859375 6.37890625 C3.03133501 4.81303877 -1.7574491 3.64194501 -7 3 C-7.99 2.67 -8.98 2.34 -10 2 C-9 1 -9 1 -6.93359375 0.90234375 C-5.69802734 0.91974609 -5.69802734 0.91974609 -4.4375 0.9375 C-3.61121094 0.94652344 -2.78492188 0.95554687 -1.93359375 0.96484375 C-1.29550781 0.97644531 -0.65742188 0.98804688 0 1 C0 0.67 0 0.34 0 0 Z " fill="#987528" transform="translate(285,346)"/>
<path d="M0 0 C3.75732602 2.07781457 6.62096351 4.37668619 9.625 7.4375 C10.38039063 8.19933594 11.13578125 8.96117187 11.9140625 9.74609375 C13.7687206 11.75009697 15.41308468 13.78135087 17 16 C16.67 16.66 16.34 17.32 16 18 C11.11013466 15.84270647 9.22198202 12.51260602 6.4921875 8.15625 C4.6911628 5.55372217 2.53610893 3.86478598 0 2 C0 1.34 0 0.68 0 0 Z " fill="#755F33" transform="translate(341,122)"/>
<path d="M0 0 C0 0.66 0 1.32 0 2 C1.32 2.33 2.64 2.66 4 3 C-4.01396246 3.6466598 -11.95787245 4.16677223 -20 4 C-16.56662726 1.99227835 -13.35335133 1.43631657 -9.4375 0.875 C-8.30183594 0.70742188 -7.16617188 0.53984375 -5.99609375 0.3671875 C-3 0 -3 0 0 0 Z " fill="#7D6739" transform="translate(215,299)"/>
<path d="M0 0 C0.66 0.99 1.32 1.98 2 3 C-0.875 7.875 -0.875 7.875 -2 9 C-3.66617115 9.04063832 -5.33388095 9.042721 -7 9 C-7.33 9.99 -7.66 10.98 -8 12 C-7.84595887 6.91664275 -4.97931568 4.64245282 -1.49609375 1.35546875 C-1.00238281 0.90816406 -0.50867188 0.46085937 0 0 Z " fill="#9F843C" transform="translate(154,324)"/>
<path d="M0 0 C0.66 0 1.32 0 2 0 C1.52590352 4.31730413 -1.03396703 6.33647461 -4.0625 9.25 C-4.98160156 10.14203125 -5.90070313 11.0340625 -6.84765625 11.953125 C-7.55792969 12.62859375 -8.26820313 13.3040625 -9 14 C-9.99 13.67 -10.98 13.34 -12 13 C-11.01 12.67 -10.02 12.34 -9 12 C-9 11.34 -9 10.68 -9 10 C-8.34 10 -7.68 10 -7 10 C-6.67 8.68 -6.34 7.36 -6 6 C-5.34 6 -4.68 6 -4 6 C-4 5.34 -4 4.68 -4 4 C-3.34 4 -2.68 4 -2 4 C-1.34 2.68 -0.68 1.36 0 0 Z " fill="#846B31" transform="translate(351,264)"/>
<path d="M0 0 C0.33 0 0.66 0 1 0 C1.55353075 14.78132118 1.55353075 14.78132118 -2 21 C-2.66 21 -3.32 21 -4 21 C-3.34 17.7 -2.68 14.4 -2 11 C-1.67 11 -1.34 11 -1 11 C-0.67 7.37 -0.34 3.74 0 0 Z " fill="#806D31" transform="translate(304,367)"/>
<path d="M0 0 C1.98 0 3.96 0 6 0 C2.49391962 4.11583349 -2.04628837 6.90567018 -7 9 C-7.66 8.67 -8.32 8.34 -9 8 C-8.01 7.67 -7.02 7.34 -6 7 C-5.5359375 6.01 -5.5359375 6.01 -5.0625 5 C-4 3 -4 3 -1.875 2.25 C-1.25625 2.1675 -0.6375 2.085 0 2 C0 1.34 0 0.68 0 0 Z " fill="#816E35" transform="translate(329,282)"/>
<path d="M0 0 C0.99 0.33 1.98 0.66 3 1 C2.41060025 2.98361438 1.80302211 4.96183541 1.1875 6.9375 C0.85105469 8.03964844 0.51460938 9.14179688 0.16796875 10.27734375 C-0.21746094 11.17582031 -0.60289062 12.07429687 -1 13 C-1.99 13.33 -2.98 13.66 -4 14 C-3.125 7.25 -3.125 7.25 -2 5 C-1.34 5 -0.68 5 0 5 C0 3.35 0 1.7 0 0 Z " fill="#917D4A" transform="translate(372,225)"/>
<path d="M0 0 C1.32 0.33 2.64 0.66 4 1 C5.46670113 6.22512279 6.22577402 10.5814234 6 16 C3.50063756 13.50063756 2.96276247 11.35191992 1.875 8 C1.52179688 6.9275 1.16859375 5.855 0.8046875 4.75 C0 2 0 2 0 0 Z " fill="#92773D" transform="translate(368,162)"/>
<path d="M0 0 C-1.38917342 2.77834684 -2.95763553 2.99642986 -5.8125 4.125 C-6.68519531 4.47820312 -7.55789063 4.83140625 -8.45703125 5.1953125 C-11 6 -11 6 -15 6 C-15 5.34 -15 4.68 -15 4 C-13.44219668 3.32243118 -11.87849904 2.65840543 -10.3125 2 C-9.44238281 1.62875 -8.57226562 1.2575 -7.67578125 0.875 C-4.9427998 -0.01870488 -2.85299066 -0.16449676 0 0 Z " fill="#89743D" transform="translate(319,291)"/>
<path d="M0 0 C7.33126033 1.40985776 13.43032485 4.51807217 20 8 C18 9 18 9 14.4375 8.1875 C11 7 11 7 10 5 C6.65489648 3.37265234 4.81164166 3 1 3 C0.67 2.01 0.34 1.02 0 0 Z " fill="#6D5B2D" transform="translate(306,103)"/>
<path d="M0 0 C-1.32 0.33 -2.64 0.66 -4 1 C-4.12375 1.639375 -4.2475 2.27875 -4.375 2.9375 C-4.58125 3.618125 -4.7875 4.29875 -5 5 C-5.99 5.495 -5.99 5.495 -7 6 C-7.46751788 8.35599235 -7.46751788 8.35599235 -7.625 11.0625 C-7.69976562 11.98160156 -7.77453125 12.90070313 -7.8515625 13.84765625 C-7.90054688 14.55792969 -7.94953125 15.26820312 -8 16 C-8.33 16 -8.66 16 -9 16 C-9.0810206 13.89646505 -9.13919907 11.79204048 -9.1875 9.6875 C-9.22230469 8.51574219 -9.25710937 7.34398438 -9.29296875 6.13671875 C-9 3 -9 3 -7.67578125 1.14453125 C-4.712681 -0.87921787 -3.43015829 -1.1433861 0 0 Z " fill="#7A6535" transform="translate(132,100)"/>
<path d="M0 0 C3.12290635 0.48578543 5.99580359 0.9986012 9 2 C9 4.31 9 6.62 9 9 C5.43946816 6.18905381 2.53081665 3.79622498 0 0 Z " fill="#A28539" transform="translate(251,384)"/>
<path d="M0 0 C0.66 0 1.32 0 2 0 C1.34 5.28 0.68 10.56 0 16 C-0.33 16 -0.66 16 -1 16 C-1.85330338 10.16524985 -2.48351814 5.55139349 0 0 Z " fill="#856D2F" transform="translate(127,366)"/>
<path d="M0 0 C3.10967723 0.59325079 3.90577406 0.90038972 6.1875 3.3125 C7.79407709 5.69466602 8.58574686 7.20379133 9 10 C8.01 10 7.02 10 6 10 C4.39453125 7.8125 4.39453125 7.8125 2.8125 5 C2.28269531 4.071875 1.75289062 3.14375 1.20703125 2.1875 C0.80871094 1.465625 0.41039062 0.74375 0 0 Z " fill="#A48E50" transform="translate(136,151)"/>
<path d="M0 0 C0.66 0.33 1.32 0.66 2 1 C-2.46153846 7.92307692 -2.46153846 7.92307692 -5 10 C-5.66 10 -6.32 10 -7 10 C-6.42424336 6.64749299 -5.40693737 5.06181371 -2.9375 2.75 C-2.38964844 2.22921875 -1.84179688 1.7084375 -1.27734375 1.171875 C-0.64505859 0.59179688 -0.64505859 0.59179688 0 0 Z " fill="#7A6A2C" transform="translate(236,209)"/>
<path d="M0 0 C1.77049689 -0.05410687 3.54146849 -0.09284119 5.3125 -0.125 C6.29863281 -0.14820312 7.28476562 -0.17140625 8.30078125 -0.1953125 C11 0 11 0 14 2 C8.97874074 2.77916092 5.02296004 3.13016601 0 2 C0 1.34 0 0.68 0 0 Z " fill="#88743A" transform="translate(286,100)"/>
<path d="M0 0 C0.33 0 0.66 0 1 0 C1.375 2.1875 1.375 2.1875 1 5 C-0.83961648 6.99022836 -2.79186148 8.38989899 -5 10 C-5.66 9.67 -6.32 9.34 -7 9 C-4.84502868 5.76754301 -2.54370724 2.93504681 0 0 Z " fill="#998239" transform="translate(134,356)"/>
<path d="M0 0 C0.33 0 0.66 0 1 0 C1 6.27 1 12.54 1 19 C0.34 19 -0.32 19 -1 19 C-1.22307542 16.7722603 -1.42788178 14.54268636 -1.625 12.3125 C-1.74101563 11.07113281 -1.85703125 9.82976562 -1.9765625 8.55078125 C-1.99953004 5.07119831 -1.54051631 3.07515279 0 0 Z " fill="#998445" transform="translate(125,376)"/>
<path d="M0 0 C5.27315333 0.4452885 10.01770224 1.08373163 15 3 C15 3.33 15 3.66 15 4 C9.158256 4.35050464 5.1468192 4.16727335 0 1 C0 0.67 0 0.34 0 0 Z " fill="#A07F2F" transform="translate(262,395)"/>
<path d="M0 0 C0 3 0 3 -2.0625 5.1875 C-5.6324266 7.39022067 -7.87853942 7.32325181 -12 7 C-9.75482826 4.4180525 -8.27259758 3.77002296 -5 3 C-3.31008021 2.0398183 -1.63790712 1.04644066 0 0 Z " fill="#866D31" transform="translate(298,390)"/>
<path d="M0 0 C1.98 0 3.96 0 6 0 C5.34 1.65 4.68 3.3 4 5 C1.36 5 -1.28 5 -4 5 C-4 4.34 -4 3.68 -4 3 C-2.68 3 -1.36 3 0 3 C0 2.01 0 1.02 0 0 Z " fill="#A3822E" transform="translate(250,201)"/>
<path d="M0 0 C0.33 0 0.66 0 1 0 C1.3125 2.1875 1.3125 2.1875 1 5 C-1.5 7.8125 -1.5 7.8125 -4 10 C-4.33 8.68 -4.66 7.36 -5 6 C-4.34 6 -3.68 6 -3 6 C-2.67 4.68 -2.34 3.36 -2 2 C-1.34 2 -0.68 2 0 2 C0 1.34 0 0.68 0 0 Z " fill="#9D8447" transform="translate(357,256)"/>
<path d="M0 0 C0.66 0.66 1.32 1.32 2 2 C1.9765625 4.3828125 1.9765625 4.3828125 1.625 7.125 C1.51414062 8.03507813 1.40328125 8.94515625 1.2890625 9.8828125 C1.19367188 10.58148438 1.09828125 11.28015625 1 12 C0.67 11.01 0.34 10.02 0 9 C-0.66 9 -1.32 9 -2 9 C-2 6.36 -2 3.72 -2 1 C-1.34 2.32 -0.68 3.64 0 5 C0 3.35 0 1.7 0 0 Z " fill="#8D7027" transform="translate(373,171)"/>
<path d="M0 0 C-1.29474635 2.58949269 -2.32663393 2.96035764 -5 4 C-7.75 4.125 -7.75 4.125 -10 4 C-10 3.34 -10 2.68 -10 2 C-8.71211992 1.46987262 -7.41953322 0.9511671 -6.125 0.4375 C-5.40570313 0.14746094 -4.68640625 -0.14257812 -3.9453125 -0.44140625 C-2 -1 -2 -1 0 0 Z " fill="#88743F" transform="translate(188,306)"/>
<path d="M0 0 C0 0.99 0 1.98 0 3 C-2.25 3.6875 -2.25 3.6875 -5 4 C-7.3125 2.5625 -7.3125 2.5625 -9 1 C-5.8035914 -0.06546953 -3.34252724 -0.07427838 0 0 Z " fill="#A48837" transform="translate(304,295)"/>
<path d="M0 0 C0.33 0.66 0.66 1.32 1 2 C1.99 2.33 2.98 2.66 4 3 C4.73046875 5.06640625 4.73046875 5.06640625 5.1875 7.5625 C5.34605469 8.38878906 5.50460938 9.21507812 5.66796875 10.06640625 C5.77753906 10.70449219 5.88710937 11.34257812 6 12 C3.12753751 9.29650589 1.58862143 6.63113469 0 3 C0 2.01 0 1.02 0 0 Z " fill="#726038" transform="translate(130,137)"/>
<path d="M0 0 C0 3.10551666 -0.5393715 4.35261084 -2 7 C-2.99 7 -3.98 7 -5 7 C-5.33 7.99 -5.66 8.98 -6 10 C-5.58578031 5.16743695 -3.53586014 3.17320782 0 0 Z " fill="#998A65" transform="translate(152,326)"/>
<path d="M0 0 C0 0.99 0 1.98 0 3 C-1.0725 3.45375 -2.145 3.9075 -3.25 4.375 C-5.88062317 5.50088537 -8.46000396 6.67920206 -11 8 C-11 7.34 -11 6.68 -11 6 C-9.1015625 4.4921875 -9.1015625 4.4921875 -6.625 2.875 C-5.81289062 2.33617187 -5.00078125 1.79734375 -4.1640625 1.2421875 C-2 0 -2 0 0 0 Z " fill="#6D613D" transform="translate(174,311)"/>
<path d="M0 0 C0.99 0.33 1.98 0.66 3 1 C2.34 3.31 1.68 5.62 1 8 C0.01 8 -0.98 8 -2 8 C-1.47731534 5.23723823 -0.89130413 2.6739124 0 0 Z " fill="#8E763D" transform="translate(367,237)"/>
<path d="M0 0 C3.465 1.98 3.465 1.98 7 4 C6.67 4.66 6.34 5.32 6 6 C4.02 5.34 2.04 4.68 0 4 C0 2.68 0 1.36 0 0 Z " fill="#998552" transform="translate(289,347)"/>
<path d="M0 0 C0.598125 0.20625 1.19625 0.4125 1.8125 0.625 C-2.8125 4.625 -2.8125 4.625 -6.1875 4.625 C-5.03076352 1.15479057 -3.91311293 -0.67081936 0 0 Z " fill="#9D7D2C" transform="translate(172.1875,314.375)"/>
<path d="M0 0 C2.64 0.33 5.28 0.66 8 1 C7.67 2.32 7.34 3.64 7 5 C4.0625 4.1875 4.0625 4.1875 1 3 C0.67 2.01 0.34 1.02 0 0 Z " fill="#A58B49" transform="translate(157,175)"/>
<path d="M0 0 C1.65 0 3.3 0 5 0 C5 0.66 5 1.32 5 2 C4.34 2 3.68 2 3 2 C2.67 3.32 2.34 4.64 2 6 C1.01 5.01 0.02 4.02 -1 3 C-0.67 2.01 -0.34 1.02 0 0 Z " fill="#9B7B20" transform="translate(292,352)"/>
<path d="M0 0 C0 0.66 0 1.32 0 2 C-1.32 2 -2.64 2 -4 2 C-4 2.66 -4 3.32 -4 4 C-4.66 4 -5.32 4 -6 4 C-6 4.66 -6 5.32 -6 6 C-6.99 6 -7.98 6 -9 6 C-8 3 -8 3 -5.0625 1.3125 C-2 0 -2 0 0 0 Z " fill="#836B37" transform="translate(250,202)"/>
<path d="M0 0 C3.36591866 1.44253657 5.51047079 3.33264727 8 6 C7.67 6.66 7.34 7.32 7 8 C5.8274869 7.04882866 4.66212985 6.08882991 3.5 5.125 C2.8503125 4.59132812 2.200625 4.05765625 1.53125 3.5078125 C1.0259375 3.01023437 0.520625 2.51265625 0 2 C0 1.34 0 0.68 0 0 Z " fill="#9F8037" transform="translate(341,124)"/>
<path d="M0 0 C3.26954202 0.56371414 4.82575883 1.49962266 7 4 C6.34 4.66 5.68 5.32 5 6 C4.34 5.67 3.68 5.34 3 5 C3 4.34 3 3.68 3 3 C2.01 2.67 1.02 2.34 0 2 C0 1.34 0 0.68 0 0 Z " fill="#9B844B" transform="translate(335,118)"/>
<path d="M0 0 C0.66 0 1.32 0 2 0 C3.5625 2.8125 3.5625 2.8125 5 6 C4.67 6.99 4.34 7.98 4 9 C3.34 7.02 2.68 5.04 2 3 C1.01 3 0.02 3 -1 3 C-0.67 2.01 -0.34 1.02 0 0 Z " fill="#715A31" transform="translate(366,155)"/>
<path d="M0 0 C3 3 3 3 3.1875 6.1875 C3.0946875 7.5796875 3.0946875 7.5796875 3 9 C2.34 9 1.68 9 1 9 C0.67 6.03 0.34 3.06 0 0 Z " fill="#806A30" transform="translate(124,117)"/>
<path d="M0 0 C-0.66 1.65 -1.32 3.3 -2 5 C-2.99 5 -3.98 5 -5 5 C-5 3.68 -5 2.36 -5 1 C-2 0 -2 0 0 0 Z " fill="#8D7527" transform="translate(194,303)"/>
<path d="M0 0 C0.598125 0.350625 1.19625 0.70125 1.8125 1.0625 C1.4825 2.0525 1.1525 3.0425 0.8125 4.0625 C-4.0625 2.3125 -4.0625 2.3125 -5.1875 0.0625 C-2.1875 -0.9375 -2.1875 -0.9375 0 0 Z " fill="#856D2D" transform="translate(172.1875,182.9375)"/>
</svg>
